<?xml version="1.0" encoding="UTF-8"?>
<svg version="1.1" xmlns="http://www.w3.org/2000/svg" width="141" height="68">
<path d="M0 0 C2.475 0.99 2.475 0.99 5 2 C4.8125 3.8125 4.8125 3.8125 4 6 C0.24046771 8.98551094 -3.29058015 9.53829217 -8 10 C-7.26394531 10.24234375 -6.52789062 10.4846875 -5.76953125 10.734375 C6.08437456 14.8057297 6.08437456 14.8057297 9.59765625 20.6640625 C11.21032254 24.50032159 11.43328225 27.34973151 11.4375 31.5 C11.45683594 32.7684375 11.47617188 34.036875 11.49609375 35.34375 C10.73815834 40.92979366 8.11724412 43.93133171 4.125 47.75 C-3.55465727 53.27935323 -13.02684627 53.58402935 -22.1875 52.4375 C-28.78427354 51.1455249 -33.26503926 48.5507871 -37.375 43.21484375 C-40.58007776 37.79514629 -40.88591076 32.14768374 -40 26 C-38.3329481 20.66008509 -35.78896202 17.00702266 -31 14 C-27.42351898 12.27799062 -24.0123929 11.00345376 -20.1875 9.9375 C-16.93931214 9.2585469 -16.93931214 9.2585469 -15 7 C-12.64319825 6.3839535 -10.26368079 5.85273616 -7.875 5.375 C-6.59367187 5.11460937 -5.31234375 4.85421875 -3.9921875 4.5859375 C-2.51105469 4.29589844 -2.51105469 4.29589844 -1 4 C-0.67 2.68 -0.34 1.36 0 0 Z M-21 26 C-22.54586876 29.09173752 -22.29359521 31.59429552 -22 35 C-20.58333333 37.58333333 -20.58333333 37.58333333 -18 39 C-14.40336722 39.4495791 -11.94782605 39.36454848 -8.5625 38.0625 C-6.34453372 35.13478452 -6.44152028 32.6988342 -6.6171875 29.09765625 C-6.85862977 26.84863709 -6.85862977 26.84863709 -8.625 24.9375 C-13.05372781 23.18931797 -17.00551908 23.33701272 -21 26 Z " fill="#FE8C2C" transform="translate(130,1)"/>
<path d="M0 0 C5.61 0 11.22 0 17 0 C18.36421031 2.72842061 17.87807211 4.60953318 17.5625 7.625 C17.46066406 8.62789062 17.35882813 9.63078125 17.25390625 10.6640625 C17.17011719 11.43492188 17.08632813 12.20578125 17 13 C17.73605469 12.39671875 18.47210938 11.7934375 19.23046875 11.171875 C20.20628906 10.37265625 21.18210937 9.5734375 22.1875 8.75 C23.15042969 7.96109375 24.11335938 7.1721875 25.10546875 6.359375 C26.06066406 5.58078125 27.01585938 4.8021875 28 4 C28.721875 3.2471875 29.44375 2.494375 30.1875 1.71875 C34.56017725 -0.95344166 38.80115768 -0.42500994 43.8125 -0.25 C44.79154297 -0.23195313 45.77058594 -0.21390625 46.77929688 -0.1953125 C49.18720771 -0.14832887 51.59309335 -0.08265694 54 0 C52.8456843 3.46294709 51.99431621 4.01130443 49.125 6.125 C43.62149883 10.26370378 38.31286023 14.62061428 33 19 C39.68985131 25.76002457 46.68253316 31.92049446 54.34765625 37.5546875 C55.16556641 38.27011719 55.16556641 38.27011719 56 39 C56 39.66 56 40.32 56 41 C35.16709027 43.00559182 35.16709027 43.00559182 27.8034668 37.06567383 C25.38697409 34.81156943 23.15638568 32.50628978 21 30 C17.82990528 31.62078662 17.82990528 31.62078662 17.48828125 34.1640625 C17.43027344 34.97617187 17.37226562 35.78828125 17.3125 36.625 C17.209375 38.06875 17.10625 39.5125 17 41 C11.39 41 5.78 41 0 41 C0 27.47 0 13.94 0 0 Z " fill="#FD8A2C" transform="translate(41,12)"/>
<path d="M0 0 C12.54 0 25.08 0 38 0 C38 4.29 38 8.58 38 13 C31.07 13 24.14 13 17 13 C17 13.66 17 14.32 17 15 C22.61 15 28.22 15 34 15 C34 18.63 34 22.26 34 26 C28.39 26 22.78 26 17 26 C17 26.66 17 27.32 17 28 C23.93 28 30.86 28 38 28 C38 32.29 38 36.58 38 41 C25.46 41 12.92 41 0 41 C0 27.47 0 13.94 0 0 Z " fill="#FE8B2C" transform="translate(2,12)"/>
<path d="M0 0 C1.65 0.66 3.3 1.32 5 2 C4.8125 3.8125 4.8125 3.8125 4 6 C0.24046771 8.98551094 -3.29058015 9.53829217 -8 10 C-6.68 10.66 -5.36 11.32 -4 12 C-9.53846154 12.36923077 -9.53846154 12.36923077 -11.875 10.5 C-12.24625 10.005 -12.6175 9.51 -13 9 C-13.66 9.66 -14.32 10.32 -15 11 C-15.66 10.01 -16.32 9.02 -17 8 C-11.72 6.68 -6.44 5.36 -1 4 C-0.67 2.68 -0.34 1.36 0 0 Z " fill="#F58022" transform="translate(130,1)"/>
<path d="M0 0 C0.33 1.32 0.66 2.64 1 4 C6.28 5.32 11.56 6.64 17 8 C17 8.66 17 9.32 17 10 C1.13789916 10.51168067 1.13789916 10.51168067 -3.80078125 6.55859375 C-5 5 -5 5 -4.8125 2.875 C-3.70390098 0.31669456 -2.74083835 0 0 0 Z " fill="#FD7E24" transform="translate(11,1)"/>
<path d="M0 0 C2.31 0 4.62 0 7 0 C6.814375 0.886875 6.62875 1.77375 6.4375 2.6875 C6.01957516 5.85178811 6.19222258 7.94839642 7 11 C4.69 10.67 2.38 10.34 0 10 C0 6.7 0 3.4 0 0 Z " fill="#020202" transform="translate(44,57)"/>
<path d="M0 0 C1.32 0.33 2.64 0.66 4 1 C4.99 0.67 5.98 0.34 7 0 C7 3.3 7 6.6 7 10 C4.69 10 2.38 10 0 10 C0 6.7 0 3.4 0 0 Z " fill="#020202" transform="translate(3,57)"/>
<path d="M0 0 C4.875 0.875 4.875 0.875 6 2 C6.14115161 4.67058851 6.04247107 7.32432238 6 10 C4.02 10 2.04 10 0 10 C0 6.7 0 3.4 0 0 Z " fill="#020202" transform="translate(31,57)"/>
<path d="M0 0 C1.67542976 0.28604898 3.34385343 0.61781233 5 1 C4.814375 1.556875 4.62875 2.11375 4.4375 2.6875 C3.92448835 5.399133 4.3359276 7.34371039 5 10 C1.25 11.125 1.25 11.125 -1 10 C-1.02689216 8.52093108 -1.04634621 7.04172517 -1.0625 5.5625 C-1.07410156 4.73878906 -1.08570312 3.91507813 -1.09765625 3.06640625 C-1 1 -1 1 0 0 Z " fill="#010101" transform="translate(118,57)"/>
<path d="M0 0 C3 2 3 2 3.51171875 4.1640625 C3.56972656 4.97617187 3.62773437 5.78828125 3.6875 6.625 C3.75324219 7.44226563 3.81898437 8.25953125 3.88671875 9.1015625 C3.92410156 9.72804688 3.96148438 10.35453125 4 11 C3.401875 10.814375 2.80375 10.62875 2.1875 10.4375 C-0.16408762 9.77906313 -0.16408762 9.77906313 -3 11 C-2.88590407 9.54077307 -2.75834456 8.08259402 -2.625 6.625 C-2.55539063 5.81289063 -2.48578125 5.00078125 -2.4140625 4.1640625 C-2 2 -2 2 0 0 Z " fill="#010101" transform="translate(20,57)"/>
<path d="M0 0 C1.2065625 0.0309375 1.2065625 0.0309375 2.4375 0.0625 C2.1075 2.0425 1.7775 4.0225 1.4375 6.0625 C0.7775 6.0625 0.1175 6.0625 -0.5625 6.0625 C-0.5625 6.7225 -0.5625 7.3825 -0.5625 8.0625 C0.4275 8.0625 1.4175 8.0625 2.4375 8.0625 C2.1075 9.0525 1.7775 10.0425 1.4375 11.0625 C-0.2125 10.7325 -1.8625 10.4025 -3.5625 10.0625 C-3.58939216 8.58343108 -3.60884621 7.10422517 -3.625 5.625 C-3.63660156 4.80128906 -3.64820313 3.97757813 -3.66015625 3.12890625 C-3.51340586 0.02366796 -3.12550237 0.07623177 0 0 Z " fill="#010101" transform="translate(60.5625,56.9375)"/>
<path d="M0 0 C0.66 0 1.32 0 2 0 C3.42258812 3.82320557 4.24042276 6.91281305 4 11 C3.401875 10.814375 2.80375 10.62875 2.1875 10.4375 C-0.16408762 9.77906313 -0.16408762 9.77906313 -3 11 C-2.69217504 9.35328588 -2.37860766 7.70764424 -2.0625 6.0625 C-1.88847656 5.14597656 -1.71445313 4.22945312 -1.53515625 3.28515625 C-1 1 -1 1 0 0 Z " fill="#010101" transform="translate(106,57)"/>
<path d="M0 0 C1.65 0 3.3 0 5 0 C5 1.98 5 3.96 5 6 C4.34 6 3.68 6 3 6 C3 6.66 3 7.32 3 8 C3.99 8 4.98 8 6 8 C5.67 8.99 5.34 9.98 5 11 C3.35 10.67 1.7 10.34 0 10 C0 6.7 0 3.4 0 0 Z " fill="#010101" transform="translate(130,57)"/>
<path d="M0 0 C2.97 0.495 2.97 0.495 6 1 C6 2.65 6 4.3 6 6 C5.01 6 4.02 6 3 6 C3 7.32 3 8.64 3 10 C2.01 10 1.02 10 0 10 C0 6.7 0 3.4 0 0 Z " fill="#010101" transform="translate(80,57)"/>
<path d="M0 0 C2.64 0 5.28 0 8 0 C7.67 0.99 7.34 1.98 7 3 C6.34 3 5.68 3 5 3 C5 5.31 5 7.62 5 10 C4.01 10 3.02 10 2 10 C2 7.69 2 5.38 2 3 C1.34 3 0.68 3 0 3 C0 2.01 0 1.02 0 0 Z " fill="#010101" transform="translate(67,57)"/>
<path d="M0 0 C2.475 0.99 2.475 0.99 5 2 C4.875 3.875 4.875 3.875 4 6 C0.98572397 7.40666215 -1.05977053 8.14845728 -4.375 7.625 C-4.91125 7.41875 -5.4475 7.2125 -6 7 C-5.01 6.401875 -4.02 5.80375 -3 5.1875 C-2.01 4.465625 -1.02 3.74375 0 3 C0 2.01 0 1.02 0 0 Z " fill="#FD8523" transform="translate(130,1)"/>
<path d="M0 0 C0.99 0.33 1.98 0.66 3 1 C3 3.31 3 5.62 3 8 C3.66 8 4.32 8 5 8 C5 8.99 5 9.98 5 11 C3.35 10.67 1.7 10.34 0 10 C0 6.7 0 3.4 0 0 Z " fill="#010101" transform="translate(93,57)"/>
<path d="M0 0 C0.33 1.65 0.66 3.3 1 5 C0.01 5.495 0.01 5.495 -1 6 C0.32 6.66 1.64 7.32 3 8 C2.01 8.495 2.01 8.495 1 9 C-1.5625 7.75 -1.5625 7.75 -4 6 C-4.33 5.01 -4.66 4.02 -5 3 C-2.25 0 -2.25 0 0 0 Z " fill="#E86E1E" transform="translate(11,1)"/>
<path d="M0 0 C3.73658685 0.42300983 7.37653234 0.98542905 11 2 C7.47940432 3.17353189 4.693507 3.20146402 1 3 C0.34 2.34 -0.32 1.68 -1 1 C-0.67 0.67 -0.34 0.34 0 0 Z " fill="#F16A1E" transform="translate(121,7)"/>
</svg>
