<?xml version="1.0" encoding="UTF-8"?>
<svg version="1.1" xmlns="http://www.w3.org/2000/svg" width="76" height="69">
<path d="M0 0 C2.36140437 1.47354617 4.38902162 2.75169789 6.28515625 4.79296875 C6.28515625 6.11296875 6.28515625 7.43296875 6.28515625 8.79296875 C2.86615688 9.57445432 -0.21940316 9.79296875 -3.71484375 9.79296875 C-4.37484375 10.12296875 -5.03484375 10.45296875 -5.71484375 10.79296875 C-6.37256803 13.82231366 -6.37256803 13.82231366 -6.71484375 16.79296875 C-5.72484375 16.79296875 -4.73484375 16.79296875 -3.71484375 16.79296875 C-1.56290005 20.0208843 -1.51397932 21.07697684 -1.71484375 24.79296875 C-2.70484375 24.79296875 -3.69484375 24.79296875 -4.71484375 24.79296875 C-4.71484375 25.78296875 -4.71484375 26.77296875 -4.71484375 27.79296875 C-3.78671875 27.91671875 -2.85859375 28.04046875 -1.90234375 28.16796875 C1.28515625 28.79296875 1.28515625 28.79296875 4.28515625 30.79296875 C4.03515625 32.66796875 4.03515625 32.66796875 3.28515625 34.79296875 C1.22265625 36.04296875 1.22265625 36.04296875 -0.71484375 36.79296875 C-0.21984375 38.77296875 -0.21984375 38.77296875 0.28515625 40.79296875 C-1.36484375 41.45296875 -3.01484375 42.11296875 -4.71484375 42.79296875 C-4.07546875 43.47359375 -3.43609375 44.15421875 -2.77734375 44.85546875 C-0.3191851 48.35648259 0.20908593 50.53303097 0.28515625 54.79296875 C-0.98342992 57.96443418 -1.97678481 59.35013339 -4.90234375 61.10546875 C-8.63637456 62.01823184 -11.86428591 61.91520868 -15.71484375 61.79296875 C-17.03484375 61.79296875 -18.35484375 61.79296875 -19.71484375 61.79296875 C-22.71484375 61.79296875 -25.71484375 61.79296875 -28.71484375 61.79296875 C-28.71484375 63.44296875 -28.71484375 65.09296875 -28.71484375 66.79296875 C-29.70484375 66.79296875 -30.69484375 66.79296875 -31.71484375 66.79296875 C-31.71484375 64.45963542 -31.71484375 62.12630208 -31.71484375 59.79296875 C-33.03484375 58.80296875 -34.35484375 57.81296875 -35.71484375 56.79296875 C-35.05484375 60.09296875 -34.39484375 63.39296875 -33.71484375 66.79296875 C-34.70484375 67.28796875 -34.70484375 67.28796875 -35.71484375 67.79296875 C-36.70484375 67.29796875 -36.70484375 67.29796875 -37.71484375 66.79296875 C-37.71484375 65.47296875 -37.71484375 64.15296875 -37.71484375 62.79296875 C-45.30484375 62.46296875 -52.89484375 62.13296875 -60.71484375 61.79296875 C-60.52734375 52.41796875 -60.52734375 52.41796875 -60.44458008 49.46728516 C-60.4370874 48.70077637 -60.42959473 47.93426758 -60.421875 47.14453125 C-60.40616455 46.35900879 -60.3904541 45.57348633 -60.37426758 44.76416016 C-60.48665771 44.11366699 -60.59904785 43.46317383 -60.71484375 42.79296875 C-61.70484375 42.13296875 -62.69484375 41.47296875 -63.71484375 40.79296875 C-63.38484375 39.47296875 -63.05484375 38.15296875 -62.71484375 36.79296875 C-62.05484375 36.79296875 -61.39484375 36.79296875 -60.71484375 36.79296875 C-60.38484375 37.45296875 -60.05484375 38.11296875 -59.71484375 38.79296875 C-57.40078155 39.52372523 -55.06655506 40.19435133 -52.71484375 40.79296875 C-52.71484375 41.45296875 -52.71484375 42.11296875 -52.71484375 42.79296875 C-47.10484375 42.79296875 -41.49484375 42.79296875 -35.71484375 42.79296875 C-35.21984375 44.77296875 -35.21984375 44.77296875 -34.71484375 46.79296875 C-33.39484375 45.80296875 -32.07484375 44.81296875 -30.71484375 43.79296875 C-31.37484375 42.47296875 -32.03484375 41.15296875 -32.71484375 39.79296875 C-33.70484375 40.28796875 -33.70484375 40.28796875 -34.71484375 40.79296875 C-43.5372177 41.4171367 -51.35318028 40.6598248 -59.71484375 37.79296875 C-59.71484375 36.80296875 -59.71484375 35.81296875 -59.71484375 34.79296875 C-62.02484375 34.46296875 -64.33484375 34.13296875 -66.71484375 33.79296875 C-66.71484375 33.13296875 -66.71484375 32.47296875 -66.71484375 31.79296875 C-65.72484375 31.13296875 -64.73484375 30.47296875 -63.71484375 29.79296875 C-65.69484375 29.79296875 -67.67484375 29.79296875 -69.71484375 29.79296875 C-69.33984375 27.85546875 -69.33984375 27.85546875 -68.71484375 25.79296875 C-68.05484375 25.46296875 -67.39484375 25.13296875 -66.71484375 24.79296875 C-66.71484375 21.16296875 -66.71484375 17.53296875 -66.71484375 13.79296875 C-65.39484375 13.13296875 -64.07484375 12.47296875 -62.71484375 11.79296875 C-62.05484375 12.12296875 -61.39484375 12.45296875 -60.71484375 12.79296875 C-61.06271083 10.8176013 -61.06271083 10.8176013 -61.71484375 8.79296875 C-62.37484375 8.46296875 -63.03484375 8.13296875 -63.71484375 7.79296875 C-62.181824 3.50051346 -59.74713495 1.77374338 -55.71484375 -0.20703125 C-49.58228892 -1.32721928 -44.85145569 -0.7657065 -39.52734375 2.54296875 C-37.296875 4.08984375 -37.296875 4.08984375 -35.71484375 5.79296875 C-35.71484375 7.11296875 -35.71484375 8.43296875 -35.71484375 9.79296875 C-31.94011922 10.27656335 -28.47150793 10.48307419 -24.71484375 9.79296875 C-22.11551956 7.48902231 -20.5445017 4.71926711 -18.71484375 1.79296875 C-13.68949831 -2.8016328 -6.00529461 -2.6699799 0 0 Z M-14.71484375 8.79296875 C-14.71484375 9.78296875 -14.71484375 10.77296875 -14.71484375 11.79296875 C-14.05484375 12.45296875 -13.39484375 13.11296875 -12.71484375 13.79296875 C-12.05484375 12.47296875 -11.39484375 11.15296875 -10.71484375 9.79296875 C-12.03484375 9.46296875 -13.35484375 9.13296875 -14.71484375 8.79296875 Z M-4.71484375 30.79296875 C-4.71484375 31.45296875 -4.71484375 32.11296875 -4.71484375 32.79296875 C-3.39484375 32.13296875 -2.07484375 31.47296875 -0.71484375 30.79296875 C-2.03484375 30.79296875 -3.35484375 30.79296875 -4.71484375 30.79296875 Z M-52.71484375 35.79296875 C-49.08061166 38.11887729 -45.94396044 37.95562708 -41.71484375 37.79296875 C-45.34907584 35.46706021 -48.48572706 35.63031042 -52.71484375 35.79296875 Z M-9.9453125 37.88671875 C-11.14897461 38.22509766 -11.14897461 38.22509766 -12.37695312 38.5703125 C-13.62702148 38.92802734 -13.62702148 38.92802734 -14.90234375 39.29296875 C-15.74732422 39.53144531 -16.59230469 39.76992188 -17.46289062 40.015625 C-19.54785939 40.60459923 -21.63148352 41.19832974 -23.71484375 41.79296875 C-22.22984375 42.78296875 -22.22984375 42.78296875 -20.71484375 43.79296875 C-20.38484375 44.45296875 -20.05484375 45.11296875 -19.71484375 45.79296875 C-16.74484375 44.80296875 -13.77484375 43.81296875 -10.71484375 42.79296875 C-10.71484375 42.13296875 -10.71484375 41.47296875 -10.71484375 40.79296875 C-8.07484375 40.46296875 -5.43484375 40.13296875 -2.71484375 39.79296875 C-2.71484375 38.80296875 -2.71484375 37.81296875 -2.71484375 36.79296875 C-5.48341764 36.79296875 -7.3163723 37.14092011 -9.9453125 37.88671875 Z M-28.71484375 38.79296875 C-28.71484375 39.12296875 -28.71484375 39.45296875 -28.71484375 39.79296875 C-26.40484375 39.79296875 -24.09484375 39.79296875 -21.71484375 39.79296875 C-21.71484375 39.46296875 -21.71484375 39.13296875 -21.71484375 38.79296875 C-24.02484375 38.79296875 -26.33484375 38.79296875 -28.71484375 38.79296875 Z M-26.33984375 48.79296875 C-27.28730469 49.62828125 -27.28730469 49.62828125 -28.25390625 50.48046875 C-28.73601563 50.91359375 -29.218125 51.34671875 -29.71484375 51.79296875 C-27.35191719 54.31885577 -26.05021864 55.68117712 -22.71484375 56.79296875 C-22.65425781 56.16648437 -22.59367187 55.54 -22.53125 54.89453125 C-22.44746094 54.07726563 -22.36367188 53.26 -22.27734375 52.41796875 C-22.19613281 51.60585938 -22.11492188 50.79375 -22.03125 49.95703125 C-21.71484375 47.79296875 -21.71484375 47.79296875 -20.71484375 45.79296875 C-23.48526484 45.79296875 -24.29649331 46.97665725 -26.33984375 48.79296875 Z M-45.71484375 49.79296875 C-45.71484375 51.44296875 -45.71484375 53.09296875 -45.71484375 54.79296875 C-45.38484375 54.79296875 -45.05484375 54.79296875 -44.71484375 54.79296875 C-44.71484375 53.14296875 -44.71484375 51.49296875 -44.71484375 49.79296875 C-45.04484375 49.79296875 -45.37484375 49.79296875 -45.71484375 49.79296875 Z M-13.71484375 49.79296875 C-14.30554389 51.73900149 -14.30554389 51.73900149 -14.71484375 53.79296875 C-13.6483926 55.08930496 -13.6483926 55.08930496 -11.15234375 54.85546875 C-10.34796875 54.83484375 -9.54359375 54.81421875 -8.71484375 54.79296875 C-9.04484375 53.14296875 -9.37484375 51.49296875 -9.71484375 49.79296875 C-11.03484375 49.79296875 -12.35484375 49.79296875 -13.71484375 49.79296875 Z " fill="#964516" transform="translate(69.71484375,1.20703125)"/>
<path d="M0 0 C2.36140437 1.47354617 4.38902162 2.75169789 6.28515625 4.79296875 C6.28515625 6.11296875 6.28515625 7.43296875 6.28515625 8.79296875 C2.86615688 9.57445432 -0.21940316 9.79296875 -3.71484375 9.79296875 C-4.37484375 10.12296875 -5.03484375 10.45296875 -5.71484375 10.79296875 C-6.44560023 13.10703095 -7.11622633 15.44125744 -7.71484375 17.79296875 C-9.69484375 17.79296875 -11.67484375 17.79296875 -13.71484375 17.79296875 C-13.71484375 19.77296875 -13.71484375 21.75296875 -13.71484375 23.79296875 C-11.07484375 23.79296875 -8.43484375 23.79296875 -5.71484375 23.79296875 C-6.04484375 26.43296875 -6.37484375 29.07296875 -6.71484375 31.79296875 C-9.18984375 32.28796875 -9.18984375 32.28796875 -11.71484375 32.79296875 C-12.04484375 31.80296875 -12.37484375 30.81296875 -12.71484375 29.79296875 C-14.69484375 30.78296875 -14.69484375 30.78296875 -16.71484375 31.79296875 C-20.6378487 29.43916578 -21.5534169 27.14831944 -22.71484375 22.79296875 C-21.06484375 22.46296875 -19.41484375 22.13296875 -17.71484375 21.79296875 C-17.71484375 20.80296875 -17.71484375 19.81296875 -17.71484375 18.79296875 C-16.72484375 18.13296875 -15.73484375 17.47296875 -14.71484375 16.79296875 C-13.65237848 14.82544047 -12.64346567 12.82709296 -11.71484375 10.79296875 C-14.67401431 10.4788002 -14.67401431 10.4788002 -16.33984375 12.10546875 C-17.93303934 13.85737759 -17.93303934 13.85737759 -18.71484375 16.79296875 C-21.35484375 16.46296875 -23.99484375 16.13296875 -26.71484375 15.79296875 C-27.04484375 16.45296875 -27.37484375 17.11296875 -27.71484375 17.79296875 C-28.70484375 17.79296875 -29.69484375 17.79296875 -30.71484375 17.79296875 C-30.71484375 18.45296875 -30.71484375 19.11296875 -30.71484375 19.79296875 C-29.72484375 20.12296875 -28.73484375 20.45296875 -27.71484375 20.79296875 C-26.3609976 27.19296875 -26.3609976 27.19296875 -28.15234375 30.23046875 C-28.66796875 30.74609375 -29.18359375 31.26171875 -29.71484375 31.79296875 C-29.71484375 30.80296875 -29.71484375 29.81296875 -29.71484375 28.79296875 C-32.02484375 28.79296875 -34.33484375 28.79296875 -36.71484375 28.79296875 C-36.71484375 28.13296875 -36.71484375 27.47296875 -36.71484375 26.79296875 C-35.72484375 26.46296875 -34.73484375 26.13296875 -33.71484375 25.79296875 C-34.37484375 25.46296875 -35.03484375 25.13296875 -35.71484375 24.79296875 C-35.71484375 23.80296875 -35.71484375 22.81296875 -35.71484375 21.79296875 C-36.70484375 21.79296875 -37.69484375 21.79296875 -38.71484375 21.79296875 C-38.71484375 22.45296875 -38.71484375 23.11296875 -38.71484375 23.79296875 C-38.05484375 24.12296875 -37.39484375 24.45296875 -36.71484375 24.79296875 C-39.35484375 24.79296875 -41.99484375 24.79296875 -44.71484375 24.79296875 C-44.38484375 23.80296875 -44.05484375 22.81296875 -43.71484375 21.79296875 C-45.36484375 21.79296875 -47.01484375 21.79296875 -48.71484375 21.79296875 C-48.38484375 22.78296875 -48.05484375 23.77296875 -47.71484375 24.79296875 C-47.05484375 25.12296875 -46.39484375 25.45296875 -45.71484375 25.79296875 C-47.36484375 26.12296875 -49.01484375 26.45296875 -50.71484375 26.79296875 C-50.71484375 27.45296875 -50.71484375 28.11296875 -50.71484375 28.79296875 C-49.06484375 29.12296875 -47.41484375 29.45296875 -45.71484375 29.79296875 C-45.71484375 31.11296875 -45.71484375 32.43296875 -45.71484375 33.79296875 C-43.73484375 33.79296875 -41.75484375 33.79296875 -39.71484375 33.79296875 C-39.38484375 35.11296875 -39.05484375 36.43296875 -38.71484375 37.79296875 C-36.73484375 37.79296875 -34.75484375 37.79296875 -32.71484375 37.79296875 C-33.37484375 38.78296875 -34.03484375 39.77296875 -34.71484375 40.79296875 C-43.33579066 41.98934506 -51.5594677 40.58909768 -59.71484375 37.79296875 C-59.71484375 36.80296875 -59.71484375 35.81296875 -59.71484375 34.79296875 C-62.02484375 34.46296875 -64.33484375 34.13296875 -66.71484375 33.79296875 C-66.71484375 33.13296875 -66.71484375 32.47296875 -66.71484375 31.79296875 C-65.72484375 31.13296875 -64.73484375 30.47296875 -63.71484375 29.79296875 C-65.69484375 29.79296875 -67.67484375 29.79296875 -69.71484375 29.79296875 C-69.33984375 27.85546875 -69.33984375 27.85546875 -68.71484375 25.79296875 C-68.05484375 25.46296875 -67.39484375 25.13296875 -66.71484375 24.79296875 C-66.71484375 21.16296875 -66.71484375 17.53296875 -66.71484375 13.79296875 C-65.39484375 13.13296875 -64.07484375 12.47296875 -62.71484375 11.79296875 C-62.05484375 12.12296875 -61.39484375 12.45296875 -60.71484375 12.79296875 C-61.06271083 10.8176013 -61.06271083 10.8176013 -61.71484375 8.79296875 C-62.37484375 8.46296875 -63.03484375 8.13296875 -63.71484375 7.79296875 C-62.181824 3.50051346 -59.74713495 1.77374338 -55.71484375 -0.20703125 C-49.58228892 -1.32721928 -44.85145569 -0.7657065 -39.52734375 2.54296875 C-37.296875 4.08984375 -37.296875 4.08984375 -35.71484375 5.79296875 C-35.71484375 7.11296875 -35.71484375 8.43296875 -35.71484375 9.79296875 C-31.94011922 10.27656335 -28.47150793 10.48307419 -24.71484375 9.79296875 C-22.11551956 7.48902231 -20.5445017 4.71926711 -18.71484375 1.79296875 C-13.68949831 -2.8016328 -6.00529461 -2.6699799 0 0 Z M-52.71484375 35.79296875 C-49.08061166 38.11887729 -45.94396044 37.95562708 -41.71484375 37.79296875 C-45.34907584 35.46706021 -48.48572706 35.63031042 -52.71484375 35.79296875 Z " fill="#A14A17" transform="translate(69.71484375,1.20703125)"/>
<path d="M0 0 C2.36140437 1.47354617 4.38902162 2.75169789 6.28515625 4.79296875 C6.28515625 6.11296875 6.28515625 7.43296875 6.28515625 8.79296875 C2.86615688 9.57445432 -0.21940316 9.79296875 -3.71484375 9.79296875 C-4.37484375 10.12296875 -5.03484375 10.45296875 -5.71484375 10.79296875 C-6.44560023 13.10703095 -7.11622633 15.44125744 -7.71484375 17.79296875 C-9.69484375 17.79296875 -11.67484375 17.79296875 -13.71484375 17.79296875 C-13.71484375 19.77296875 -13.71484375 21.75296875 -13.71484375 23.79296875 C-11.07484375 23.79296875 -8.43484375 23.79296875 -5.71484375 23.79296875 C-6.04484375 26.43296875 -6.37484375 29.07296875 -6.71484375 31.79296875 C-9.18984375 32.28796875 -9.18984375 32.28796875 -11.71484375 32.79296875 C-12.04484375 31.80296875 -12.37484375 30.81296875 -12.71484375 29.79296875 C-14.69484375 30.78296875 -14.69484375 30.78296875 -16.71484375 31.79296875 C-20.6378487 29.43916578 -21.5534169 27.14831944 -22.71484375 22.79296875 C-21.06484375 22.46296875 -19.41484375 22.13296875 -17.71484375 21.79296875 C-17.71484375 20.80296875 -17.71484375 19.81296875 -17.71484375 18.79296875 C-16.72484375 18.13296875 -15.73484375 17.47296875 -14.71484375 16.79296875 C-13.65237848 14.82544047 -12.64346567 12.82709296 -11.71484375 10.79296875 C-14.67401431 10.4788002 -14.67401431 10.4788002 -16.33984375 12.10546875 C-17.93303934 13.85737759 -17.93303934 13.85737759 -18.71484375 16.79296875 C-21.35484375 16.46296875 -23.99484375 16.13296875 -26.71484375 15.79296875 C-27.04484375 16.45296875 -27.37484375 17.11296875 -27.71484375 17.79296875 C-28.70484375 17.79296875 -29.69484375 17.79296875 -30.71484375 17.79296875 C-30.71484375 18.45296875 -30.71484375 19.11296875 -30.71484375 19.79296875 C-29.72484375 20.12296875 -28.73484375 20.45296875 -27.71484375 20.79296875 C-26.3609976 27.19296875 -26.3609976 27.19296875 -28.15234375 30.23046875 C-28.66796875 30.74609375 -29.18359375 31.26171875 -29.71484375 31.79296875 C-29.71484375 30.80296875 -29.71484375 29.81296875 -29.71484375 28.79296875 C-32.02484375 28.79296875 -34.33484375 28.79296875 -36.71484375 28.79296875 C-36.71484375 28.13296875 -36.71484375 27.47296875 -36.71484375 26.79296875 C-35.72484375 26.46296875 -34.73484375 26.13296875 -33.71484375 25.79296875 C-34.37484375 25.46296875 -35.03484375 25.13296875 -35.71484375 24.79296875 C-35.71484375 23.80296875 -35.71484375 22.81296875 -35.71484375 21.79296875 C-36.70484375 21.79296875 -37.69484375 21.79296875 -38.71484375 21.79296875 C-38.71484375 22.45296875 -38.71484375 23.11296875 -38.71484375 23.79296875 C-38.05484375 24.12296875 -37.39484375 24.45296875 -36.71484375 24.79296875 C-39.35484375 24.79296875 -41.99484375 24.79296875 -44.71484375 24.79296875 C-44.38484375 23.80296875 -44.05484375 22.81296875 -43.71484375 21.79296875 C-45.36484375 21.79296875 -47.01484375 21.79296875 -48.71484375 21.79296875 C-48.71484375 21.46296875 -48.71484375 21.13296875 -48.71484375 20.79296875 C-47.06484375 20.79296875 -45.41484375 20.79296875 -43.71484375 20.79296875 C-43.71484375 19.14296875 -43.71484375 17.49296875 -43.71484375 15.79296875 C-38.96484375 13.79296875 -38.96484375 13.79296875 -36.71484375 13.79296875 C-35.72484375 13.46296875 -34.73484375 13.13296875 -33.71484375 12.79296875 C-33.71484375 11.80296875 -33.71484375 10.81296875 -33.71484375 9.79296875 C-33.13476562 9.88578125 -32.5546875 9.97859375 -31.95703125 10.07421875 C-29.35158514 10.31498605 -27.2789181 10.35202103 -24.71484375 9.79296875 C-22.77872875 7.94720578 -21.48358822 6.00916964 -20.0234375 3.7734375 C-15.63756736 -2.86428238 -6.79002241 -3.01887327 0 0 Z " fill="#BC6C14" transform="translate(69.71484375,1.20703125)"/>
<path d="M0 0 C0.66 0 1.32 0 2 0 C2.33 0.66 2.66 1.32 3 2 C5.3140622 2.73075648 7.64828869 3.40138258 10 4 C10 4.66 10 5.32 10 6 C10.65226562 5.98839844 11.30453125 5.97679687 11.9765625 5.96484375 C16.7761914 5.91529006 21.27784685 6.00586249 26 7 C25.67 7.99 25.34 8.98 25 10 C23.68 9.67 22.36 9.34 21 9 C21.495 15.93 21.495 15.93 22 23 C18.95318939 25.03120707 18.39881676 25.24659875 14.98828125 25.1953125 C14.23095703 25.18886719 13.47363281 25.18242188 12.69335938 25.17578125 C11.90767578 25.15902344 11.12199219 25.14226563 10.3125 25.125 C9.51521484 25.11597656 8.71792969 25.10695313 7.89648438 25.09765625 C5.930861 25.07411585 3.96539225 25.03824547 2 25 C2.02356567 24.15236084 2.02356567 24.15236084 2.04760742 23.28759766 C2.10987045 20.73349977 2.14896136 18.17956129 2.1875 15.625 C2.21263672 14.73554687 2.23777344 13.84609375 2.26367188 12.9296875 C2.27333984 12.07890625 2.28300781 11.228125 2.29296875 10.3515625 C2.3086792 9.56604004 2.32438965 8.78051758 2.34057617 7.97119141 C2.22818604 7.32069824 2.1157959 6.67020508 2 6 C1.01 5.34 0.02 4.68 -1 4 C-0.67 2.68 -0.34 1.36 0 0 Z M17 13 C17 14.65 17 16.3 17 18 C17.33 18 17.66 18 18 18 C18 16.35 18 14.7 18 13 C17.67 13 17.34 13 17 13 Z " fill="#9E4816" transform="translate(7,38)"/>
<path d="M0 0 C0.99 0.33 1.98 0.66 3 1 C2.75 2.875 2.75 2.875 2 5 C-0.0625 6.25 -0.0625 6.25 -2 7 C-1.360625 7.515625 -0.72125 8.03125 -0.0625 8.5625 C2.64002035 11.75638769 2.92716612 13.84846877 3 18 C1.73141383 21.17146543 0.73805894 22.55716464 -2.1875 24.3125 C-5.92153081 25.22526309 -9.14944216 25.12223993 -13 25 C-14.32 25 -15.64 25 -17 25 C-18.34164079 24.7018576 -19.67851173 24.37756808 -21 24 C-20.01 22.515 -20.01 22.515 -19 21 C-19.33 20.67 -19.66 20.34 -20 20 C-20.52097824 15.78947098 -20.7144436 12.19073933 -18.5 8.5 C-14.9787637 6.38725822 -12.08577216 6.27238481 -8 6 C-8 5.34 -8 4.68 -8 4 C-5.29120665 2.64560332 -2.99066732 2.93498549 0 3 C0 2.01 0 1.02 0 0 Z M-11 13 C-11.59070014 14.94603274 -11.59070014 14.94603274 -12 17 C-10.93354885 18.29633621 -10.93354885 18.29633621 -8.4375 18.0625 C-7.633125 18.041875 -6.82875 18.02125 -6 18 C-6.33 16.35 -6.66 14.7 -7 13 C-8.32 13 -9.64 13 -11 13 Z " fill="#9D4816" transform="translate(67,38)"/>
<path d="M0 0 C6.93 0.495 6.93 0.495 14 1 C14 1.66 14 2.32 14 3 C12.02 3 10.04 3 8 3 C8 3.66 8 4.32 8 5 C7.01 5.66 6.02 6.32 5 7 C4.67 7.99 4.34 8.98 4 10 C1.36 9.67 -1.28 9.34 -4 9 C-4.33 9.66 -4.66 10.32 -5 11 C-5.99 11 -6.98 11 -8 11 C-8 11.66 -8 12.32 -8 13 C-7.01 13.33 -6.02 13.66 -5 14 C-3.64615385 20.4 -3.64615385 20.4 -5.4375 23.4375 C-5.953125 23.953125 -6.46875 24.46875 -7 25 C-7 24.01 -7 23.02 -7 22 C-9.31 22 -11.62 22 -14 22 C-14 21.34 -14 20.68 -14 20 C-13.01 19.67 -12.02 19.34 -11 19 C-11.66 18.67 -12.32 18.34 -13 18 C-13 17.01 -13 16.02 -13 15 C-13.99 15 -14.98 15 -16 15 C-16 15.66 -16 16.32 -16 17 C-15.34 17.33 -14.68 17.66 -14 18 C-16.64 18 -19.28 18 -22 18 C-21.67 17.01 -21.34 16.02 -21 15 C-22.65 15 -24.3 15 -26 15 C-26 14.67 -26 14.34 -26 14 C-24.35 14 -22.7 14 -21 14 C-21 12.35 -21 10.7 -21 9 C-16.25 7 -16.25 7 -14 7 C-13.01 6.67 -12.02 6.34 -11 6 C-11 5.01 -11 4.02 -11 3 C-10.06027344 3.05220703 -10.06027344 3.05220703 -9.1015625 3.10546875 C-8.28429687 3.13253906 -7.46703125 3.15960938 -6.625 3.1875 C-5.40683594 3.23970703 -5.40683594 3.23970703 -4.1640625 3.29296875 C-3.44992188 3.19628906 -2.73578125 3.09960938 -2 3 C-1.34 2.01 -0.68 1.02 0 0 Z " fill="#C6742E" transform="translate(47,8)"/>
<path d="M0 0 C3.42101716 1.52812006 6.43713925 3.24096967 9 6 C9 7.32 9 8.64 9 10 C5.7 10.33 2.4 10.66 -1 11 C-1 9.68 -1 8.36 -1 7 C-2.65 7.33 -4.3 7.66 -6 8 C-6.33 9.32 -6.66 10.64 -7 12 C-9.31 12 -11.62 12 -14 12 C-14 11.34 -14 10.68 -14 10 C-16.475 9.01 -16.475 9.01 -19 8 C-16.01157712 -0.36758406 -7.74697322 -1.42988211 0 0 Z " fill="#A04B17" transform="translate(25,1)"/>
<path d="M0 0 C1.875 0.3125 1.875 0.3125 4 1 C6.1519437 4.22791555 6.20086443 5.28400809 6 9 C5.01 9 4.02 9 3 9 C3 9.99 3 10.98 3 12 C4.3921875 12.185625 4.3921875 12.185625 5.8125 12.375 C9 13 9 13 12 15 C11.8515625 16.859375 11.8515625 16.859375 11 19 C5.07104387 22.02993973 -1.36984999 23.60274091 -8 23 C-8 22.01 -8 21.02 -8 20 C-7.34 20 -6.68 20 -6 20 C-6.99 18.68 -7.98 17.36 -9 16 C-8.01 15.34 -7.02 14.68 -6 14 C-5.34 13.01 -4.68 12.02 -4 11 C-3.67 12.65 -3.34 14.3 -3 16 C-1.68 16 -0.36 16 1 16 C1.33 13.36 1.66 10.72 2 8 C-0.64 8 -3.28 8 -6 8 C-6 6.02 -6 4.04 -6 2 C-4.02 2 -2.04 2 0 2 C0 1.34 0 0.68 0 0 Z M3 15 C3 15.66 3 16.32 3 17 C4.32 16.34 5.64 15.68 7 15 C5.68 15 4.36 15 3 15 Z " fill="#9C4915" transform="translate(62,17)"/>
<path d="M0 0 C1.65 0 3.3 0 5 0 C5 1.32 5 2.64 5 4 C5.92232422 3.87431641 5.92232422 3.87431641 6.86328125 3.74609375 C7.67152344 3.64425781 8.47976562 3.54242188 9.3125 3.4375 C10.11300781 3.33308594 10.91351562 3.22867187 11.73828125 3.12109375 C14 3 14 3 17 4 C17 4.66 17 5.32 17 6 C15.1875 7.6875 15.1875 7.6875 13 9 C12.01 8.67 11.02 8.34 10 8 C9.01 8.495 9.01 8.495 8 9 C7.34444881 11.52733235 7.34444881 11.52733235 7 14 C5.02 14.33 3.04 14.66 1 15 C1 14.34 1 13.68 1 13 C0.34 13 -0.32 13 -1 13 C-1 13.66 -1 14.32 -1 15 C-1.66 15 -2.32 15 -3 15 C-5 12 -5 12 -5 9 C-3 10 -1 11 1 12 C0.67 10.68 0.34 9.36 0 8 C-2.64 7.67 -5.28 7.34 -8 7 C-8.99 8.485 -8.99 8.485 -10 10 C-9.01 10.33 -8.02 10.66 -7 11 C-7 11.99 -7 12.98 -7 14 C-7.99 14 -8.98 14 -10 14 C-10 13.01 -10 12.02 -10 11 C-10.99 11.33 -11.98 11.66 -13 12 C-13.99 11.67 -14.98 11.34 -16 11 C-15.67 9.35 -15.34 7.7 -15 6 C-14.01 5.67 -13.02 5.34 -12 5 C-11.34 5.33 -10.68 5.66 -10 6 C-10 5.01 -10 4.02 -10 3 C-9.34 3 -8.68 3 -8 3 C-8 3.66 -8 4.32 -8 5 C-5.69 5 -3.38 5 -1 5 C-0.67 3.35 -0.34 1.7 0 0 Z " fill="#87532B" transform="translate(19,8)"/>
<path d="M0 0 C2.97 0.495 2.97 0.495 6 1 C5.67 2.32 5.34 3.64 5 5 C3.02 5 1.04 5 -1 5 C-1 6.98 -1 8.96 -1 11 C1.64 11 4.28 11 7 11 C6.67 13.64 6.34 16.28 6 19 C4.35 19.33 2.7 19.66 1 20 C0.67 19.01 0.34 18.02 0 17 C-1.98 17.99 -1.98 17.99 -4 19 C-7.92300495 16.64619703 -8.83857315 14.35535069 -10 10 C-8.35 9.67 -6.7 9.34 -5 9 C-5 8.01 -5 7.02 -5 6 C-4.01 5.34 -3.02 4.68 -2 4 C-0.80767387 1.94996045 -0.80767387 1.94996045 0 0 Z " fill="#F7C24A" transform="translate(57,14)"/>
<path d="M0 0 C1.65 0 3.3 0 5 0 C5 0.66 5 1.32 5 2 C6.65 2 8.3 2 10 2 C10 1.34 10 0.68 10 0 C10.99 0 11.98 0 13 0 C13 0.99 13 1.98 13 3 C15.31 3.33 17.62 3.66 20 4 C20 4.33 20 4.66 20 5 C17.36 5 14.72 5 12 5 C12 5.66 12 6.32 12 7 C14.31 7 16.62 7 19 7 C19.33 9.31 19.66 11.62 20 14 C19.01 14.495 19.01 14.495 18 15 C18 14.01 18 13.02 18 12 C15.36 12 12.72 12 10 12 C9.67 12.66 9.34 13.32 9 14 C9 13.34 9 12.68 9 12 C7.02 12 5.04 12 3 12 C2.731875 11.21625 2.46375 10.4325 2.1875 9.625 C1.15185568 6.71885077 1.15185568 6.71885077 -2 5 C-1.34 4.67 -0.68 4.34 0 4 C0 2.68 0 1.36 0 0 Z " fill="#8E4417" transform="translate(21,23)"/>
<path d="M0 0 C0 0.66 0 1.32 0 2 C0.99 2.33 1.98 2.66 3 3 C1.68 3 0.36 3 -1 3 C-1.33 3.99 -1.66 4.98 -2 6 C0.64 6.33 3.28 6.66 6 7 C7.35384615 13.4 7.35384615 13.4 5.5625 16.4375 C5.046875 16.953125 4.53125 17.46875 4 18 C4 17.01 4 16.02 4 15 C1.69 15 -0.62 15 -3 15 C-3 14.34 -3 13.68 -3 13 C-2.01 12.67 -1.02 12.34 0 12 C-0.66 11.67 -1.32 11.34 -2 11 C-2 10.01 -2 9.02 -2 8 C-2.99 8 -3.98 8 -5 8 C-5 8.66 -5 9.32 -5 10 C-4.34 10.33 -3.68 10.66 -3 11 C-5.64 11 -8.28 11 -11 11 C-10.67 10.01 -10.34 9.02 -10 8 C-11.65 8 -13.3 8 -15 8 C-15 7.67 -15 7.34 -15 7 C-13.35 7 -11.7 7 -10 7 C-10.0928125 5.824375 -10.0928125 5.824375 -10.1875 4.625 C-10.125625 3.75875 -10.06375 2.8925 -10 2 C-6.38628044 -0.40914637 -4.22199845 0 0 0 Z " fill="#C07E20" transform="translate(36,15)"/>
<path d="M0 0 C2.64 0.33 5.28 0.66 8 1 C8.33 2.65 8.66 4.3 9 6 C7 5 5 4 3 3 C3.66 4.98 4.32 6.96 5 9 C5.66 9 6.32 9 7 9 C7 9.99 7 10.98 7 12 C6.34 12 5.68 12 5 12 C5 12.99 5 13.98 5 15 C3.02 15 1.04 15 -1 15 C-1 14.01 -1 13.02 -1 12 C-2.2065625 12.2784375 -2.2065625 12.2784375 -3.4375 12.5625 C-4.283125 12.706875 -5.12875 12.85125 -6 13 C-7 12 -7 12 -7.0625 8.4375 C-7.041875 7.303125 -7.02125 6.16875 -7 5 C-5.35 5 -3.7 5 -2 5 C-2 5.99 -2 6.98 -2 8 C-1.01 8 -0.02 8 1 8 C0.67 7.01 0.34 6.02 0 5 C-0.66 4.67 -1.32 4.34 -2 4 C-1.34 2.68 -0.68 1.36 0 0 Z " fill="#A86236" transform="translate(11,14)"/>
<path d="M0 0 C0.99 0 1.98 0 3 0 C3 1.65 3 3.3 3 5 C1.02 5.99 1.02 5.99 -1 7 C-1 7.99 -1 8.98 -1 10 C-2.98 10.33 -4.96 10.66 -7 11 C-7 12.98 -7 14.96 -7 17 C-7.66 17 -8.32 17 -9 17 C-9 14.69 -9 12.38 -9 10 C-11.475 9.01 -11.475 9.01 -14 8 C-14 7.34 -14 6.68 -14 6 C-13.01 6 -12.02 6 -11 6 C-10.67 5.01 -10.34 4.02 -10 3 C-7.36 3.66 -4.72 4.32 -2 5 C-1.67 3.68 -1.34 2.36 -1 1 C-0.67 0.67 -0.34 0.34 0 0 Z " fill="#6D3511" transform="translate(53,13)"/>
<path d="M0 0 C1.65 0 3.3 0 5 0 C5 1.32 5 2.64 5 4 C5.92232422 3.87431641 5.92232422 3.87431641 6.86328125 3.74609375 C7.67152344 3.64425781 8.47976562 3.54242188 9.3125 3.4375 C10.11300781 3.33308594 10.91351563 3.22867187 11.73828125 3.12109375 C14 3 14 3 17 4 C17 4.66 17 5.32 17 6 C15.1875 7.6875 15.1875 7.6875 13 9 C12.01 8.67 11.02 8.34 10 8 C9.01 8.33 8.02 8.66 7 9 C6.67 8.34 6.34 7.68 6 7 C4.10466658 6.53476937 4.10466658 6.53476937 1.9375 6.375 C0.638125 6.25125 -0.66125 6.1275 -2 6 C-1.34 4.02 -0.68 2.04 0 0 Z " fill="#562807" transform="translate(19,8)"/>
<path d="M0 0 C5.53351057 0.08760175 8.86754953 1.68441264 13.35546875 4.796875 C14.9375 6.5 14.9375 6.5 14.9375 10.5 C11.6375 10.83 8.3375 11.16 4.9375 11.5 C4.9375 10.84 4.9375 10.18 4.9375 9.5 C7.9075 9.5 10.8775 9.5 13.9375 9.5 C13.9375 8.84 13.9375 8.18 13.9375 7.5 C12.6175 7.17 11.2975 6.84 9.9375 6.5 C9.9375 7.16 9.9375 7.82 9.9375 8.5 C3.9975 7.51 3.9975 7.51 -2.0625 6.5 C-2.0625 5.84 -2.0625 5.18 -2.0625 4.5 C0.5775 4.17 3.2175 3.84 5.9375 3.5 C4.85197634 2.18737429 4.85197634 2.18737429 2.21484375 2.40234375 C1.11269531 2.41394531 0.01054687 2.42554688 -1.125 2.4375 C-2.22972656 2.44652344 -3.33445312 2.45554688 -4.47265625 2.46484375 C-5.32730469 2.47644531 -6.18195312 2.48804688 -7.0625 2.5 C-4.5458762 -0.0166238 -3.49759292 0.11806221 0 0 Z " fill="#C97F12" transform="translate(19.0625,0.5)"/>
<path d="M0 0 C2.97 0.495 2.97 0.495 6 1 C5.814375 1.78375 5.62875 2.5675 5.4375 3.375 C4.74037734 5.97089775 4.74037734 5.97089775 6 8 C5.01 8 4.02 8 3 8 C3 8.66 3 9.32 3 10 C3.66 10.33 4.32 10.66 5 11 C0.71 10.67 -3.58 10.34 -8 10 C-8 9.67 -8 9.34 -8 9 C-5.69 9 -3.38 9 -1 9 C-0.67 7.35 -0.34 5.7 0 4 C-0.66 3.67 -1.32 3.34 -2 3 C-1.34 3 -0.68 3 0 3 C0 2.01 0 1.02 0 0 Z " fill="#BC7621" transform="translate(36,11)"/>
<path d="M0 0 C0 2.97 0 5.94 0 9 C-1.65 8.67 -3.3 8.34 -5 8 C-4.67 7.01 -4.34 6.02 -4 5 C-3.34 5 -2.68 5 -2 5 C-2 4.34 -2 3.68 -2 3 C-3.15628906 3.03480469 -3.15628906 3.03480469 -4.3359375 3.0703125 C-5.33882812 3.08835937 -6.34171875 3.10640625 -7.375 3.125 C-8.37273438 3.14820313 -9.37046875 3.17140625 -10.3984375 3.1953125 C-13 3 -13 3 -15 1 C-9.69276568 -0.42705634 -5.46108889 -1.4002792 0 0 Z " fill="#6F3411" transform="translate(63,6)"/>
<path d="M0 0 C1.875 0.1875 1.875 0.1875 4 1 C5.25 3.5625 5.25 3.5625 6 6 C2.61082427 7.0428233 -0.47403153 7 -4 7 C-4.99 7.495 -4.99 7.495 -6 8 C-6 6.02 -6 4.04 -6 2 C-4.02 2 -2.04 2 0 2 C0 1.34 0 0.68 0 0 Z " fill="#9D5F1C" transform="translate(62,17)"/>
<path d="M0 0 C0 0.99 0 1.98 0 3 C1.65 3.33 3.3 3.66 5 4 C4.67 4.99 4.34 5.98 4 7 C2.80375 6.67 1.6075 6.34 0.375 6 C-3.15791497 5.10734177 -6.34079109 4.81703955 -10 5 C-9.625 3.0625 -9.625 3.0625 -9 1 C-6.04335481 -0.4783226 -3.25770263 -0.06032783 0 0 Z " fill="#984714" transform="translate(10,26)"/>
<path d="M0 0 C0.33 0.66 0.66 1.32 1 2 C0.43152344 2.04898437 -0.13695313 2.09796875 -0.72265625 2.1484375 C-4.60012195 2.52388493 -8.05637447 3.01663509 -11.8125 4.125 C-14.85068277 4.95901096 -16.13568442 5.14572623 -19 4 C-16.89214148 1.48678408 -15.48475046 0.14655247 -12.3125 -0.8125 C-8.17525292 -1.0466838 -4.04587281 -0.9795271 0 0 Z " fill="#A65516" transform="translate(67,2)"/>
<path d="M0 0 C2.31 0 4.62 0 7 0 C6.67 2.64 6.34 5.28 6 8 C4.35 8.33 2.7 8.66 1 9 C-1 6 -1 6 -0.625 2.8125 C-0.41875 1.884375 -0.2125 0.95625 0 0 Z " fill="#AA5A17" transform="translate(57,25)"/>
<path d="M0 0 C0 -0.66 0 -1.32 0 -2 C1.32 -1.67 2.64 -1.34 4 -1 C4 -0.34 4 0.32 4 1 C1.03 1 -1.94 1 -5 1 C-5 0.34 -5 -0.32 -5 -1 C-6.2684375 -0.505 -6.2684375 -0.505 -7.5625 0 C-11.74266888 1.21604913 -15.97751725 2.01124138 -20 0 C-20 -0.66 -20 -1.32 -20 -2 C-13.04488271 -3.33183097 -6.33969693 -3.50615293 0 0 Z " fill="#974517" transform="translate(29,9)"/>
<path d="M0 0 C1.65 0 3.3 0 5 0 C5 0.66 5 1.32 5 2 C6.32 2.66 7.64 3.32 9 4 C9 4.33 9 4.66 9 5 C7.35 5 5.7 5 4 5 C4.33 7.31 4.66 9.62 5 12 C4.34 12 3.68 12 3 12 C2.731875 11.21625 2.46375 10.4325 2.1875 9.625 C1.15185568 6.71885077 1.15185568 6.71885077 -2 5 C-1.34 4.67 -0.68 4.34 0 4 C0 2.68 0 1.36 0 0 Z " fill="#52240E" transform="translate(21,23)"/>
<path d="M0 0 C0 0.66 0 1.32 0 2 C0.99 2.33 1.98 2.66 3 3 C1.68 3 0.36 3 -1 3 C-1 3.66 -1 4.32 -1 5 C-3.97 5 -6.94 5 -10 5 C-9.67 3.68 -9.34 2.36 -9 1 C-6.06474376 -0.46762812 -3.22390037 0 0 0 Z " fill="#DCA037" transform="translate(36,15)"/>
<path d="M0 0 C0.66 0.33 1.32 0.66 2 1 C2 1.99 2 2.98 2 4 C1.01 4 0.02 4 -1 4 C-1 4.66 -1 5.32 -1 6 C1.97 6.33 4.94 6.66 8 7 C8 7.99 8 8.98 8 10 C5.69 10 3.38 10 1 10 C1 9.34 1 8.68 1 8 C-1.475 7.01 -1.475 7.01 -4 6 C-2.84826645 3.53199953 -1.95216435 1.95216435 0 0 Z " fill="#D0860E" transform="translate(10,3)"/>
<path d="M0 0 C2.64 0.33 5.28 0.66 8 1 C8.33 2.65 8.66 4.3 9 6 C7 5 5 4 3 3 C2.67 4.65 2.34 6.3 2 8 C0.68 6.68 -0.64 5.36 -2 4 C-1.34 2.68 -0.68 1.36 0 0 Z " fill="#D29928" transform="translate(11,14)"/>
<path d="M0 0 C0.99 0 1.98 0 3 0 C3 0.99 3 1.98 3 3 C5.64 3 8.28 3 11 3 C11.33 2.01 11.66 1.02 12 0 C12.33 2.31 12.66 4.62 13 7 C12.01 7.495 12.01 7.495 11 8 C11 7.01 11 6.02 11 5 C8.36 5 5.72 5 3 5 C2.67 5.66 2.34 6.32 2 7 C2 6.34 2 5.68 2 5 C1.34 5 0.68 5 0 5 C0 3.35 0 1.7 0 0 Z " fill="#7C360F" transform="translate(28,30)"/>
<path d="M0 0 C0.99 0.33 1.98 0.66 3 1 C3 2.65 3 4.3 3 6 C1.02 6.33 -0.96 6.66 -3 7 C-3 6.34 -3 5.68 -3 5 C-3.66 5 -4.32 5 -5 5 C-5 5.66 -5 6.32 -5 7 C-5.66 7 -6.32 7 -7 7 C-9 4 -9 4 -9 1 C-8.13375 1.495 -8.13375 1.495 -7.25 2 C-4.80116138 3.27075898 -4.80116138 3.27075898 -1 3 C-0.67 2.01 -0.34 1.02 0 0 Z " fill="#55260E" transform="translate(23,16)"/>
<path d="M0 0 C2.97 0.495 2.97 0.495 6 1 C6 1.66 6 2.32 6 3 C7.32 2.34 8.64 1.68 10 1 C9.67 2.65 9.34 4.3 9 6 C7.01432292 5.70703125 5.02864583 5.4140625 3.04296875 5.12109375 C0.7974658 4.86095201 0.7974658 4.86095201 -2 6 C-1.34 4.02 -0.68 2.04 0 0 Z " fill="#CF8B12" transform="translate(42,12)"/>
<path d="M0 0 C0.66 0 1.32 0 2 0 C2.28875 0.804375 2.5775 1.60875 2.875 2.4375 C3.73262568 5.1326468 3.73262568 5.1326468 6 6 C5 7 5 7 1.9375 7.0625 C0.968125 7.041875 -0.00125 7.02125 -1 7 C-1 7.99 -1 8.98 -1 10 C-1.99 9.67 -2.98 9.34 -4 9 C-3.34 8.67 -2.68 8.34 -2 8 C-2 7.01 -2 6.02 -2 5 C-1.34 5 -0.68 5 0 5 C0 3.35 0 1.7 0 0 Z " fill="#914C20" transform="translate(18,21)"/>
<path d="M0 0 C2.00720923 0.28674418 4.0085944 0.61866701 6 1 C5.67 2.32 5.34 3.64 5 5 C3.02 5 1.04 5 -1 5 C-1.33 5.66 -1.66 6.32 -2 7 C-1.125 1.125 -1.125 1.125 0 0 Z " fill="#CF902E" transform="translate(57,14)"/>
<path d="M0 0 C2.49361571 1.20381448 4.68143083 2.45428722 7 4 C6.34 6.31 5.68 8.62 5 11 C4.01 11 3.02 11 2 11 C2 8.66666667 2 6.33333333 2 4 C1.36525925 2.65117592 0.70151152 1.3153341 0 0 Z " fill="#5A2E0C" transform="translate(36,57)"/>
<path d="M0 0 C3.96 0 7.92 0 12 0 C12.33 0.99 12.66 1.98 13 3 C12.34 3 11.68 3 11 3 C10.01 4.485 10.01 4.485 9 6 C8.34 6 7.68 6 7 6 C6.67 4.68 6.34 3.36 6 2 C3.03 1.505 3.03 1.505 0 1 C0 0.67 0 0.34 0 0 Z " fill="#976333" transform="translate(13,14)"/>
<path d="M0 0 C0.99 0 1.98 0 3 0 C2.45276317 3.37462715 1.9451 5.08235 0 8 C0 7.01 0 6.02 0 5 C-2.31 5 -4.62 5 -7 5 C-7 4.34 -7 3.68 -7 3 C-3.535 2.505 -3.535 2.505 0 2 C0 1.34 0 0.68 0 0 Z " fill="#BA8261" transform="translate(40,25)"/>
<path d="M0 0 C0.33 0 0.66 0 1 0 C1 1.65 1 3.3 1 5 C1.99 5 2.98 5 4 5 C4 7.64 4 10.28 4 13 C3.34 13 2.68 13 2 13 C2 10.69 2 8.38 2 6 C-0.475 5.01 -0.475 5.01 -3 4 C-3 3.34 -3 2.68 -3 2 C-2.01 2 -1.02 2 0 2 C0 1.34 0 0.68 0 0 Z " fill="#4C2007" transform="translate(42,17)"/>
<path d="M0 0 C0.33 0.66 0.66 1.32 1 2 C0.01 2 -0.98 2 -2 2 C-2 2.66 -2 3.32 -2 4 C-1.34 4.33 -0.68 4.66 0 5 C-4.29 4.67 -8.58 4.34 -13 4 C-13 3.67 -13 3.34 -13 3 C-10.69 3 -8.38 3 -6 3 C-6 2.34 -6 1.68 -6 1 C-4.02 0.67 -2.04 0.34 0 0 Z " fill="#894A17" transform="translate(41,17)"/>
<path d="M0 0 C1.65 0 3.3 0 5 0 C5 0.99 5 1.98 5 3 C4.34 3 3.68 3 3 3 C3 4.65 3 6.3 3 8 C2.01 7.67 1.02 7.34 0 7 C0 4.69 0 2.38 0 0 Z " fill="#F9C30B" transform="translate(4,19)"/>
<path d="M0 0 C1.5 1 1.5 1 3 3 C3.27345479 5.71846235 3.13491285 8.25677199 3 11 C2.34 11 1.68 11 1 11 C1 10.01 1 9.02 1 8 C0.34 8 -0.32 8 -1 8 C-0.67 5.36 -0.34 2.72 0 0 Z " fill="#AA542D" transform="translate(46,24)"/>
<path d="M0 0 C2.97 0 5.94 0 9 0 C9.33 0.99 9.66 1.98 10 3 C10.66 3.33 11.32 3.66 12 4 C9.36 4 6.72 4 4 4 C4.33 3.01 4.66 2.02 5 1 C3.35 1 1.7 1 0 1 C0 0.67 0 0.34 0 0 Z " fill="#C59035" transform="translate(21,22)"/>
<path d="M0 0 C-0.33 0.99 -0.66 1.98 -1 3 C-2.32148827 3.37756808 -3.65835921 3.7018576 -5 4 C-6.68991979 4.9601817 -8.36209288 5.95355934 -10 7 C-9.63206382 4.33246269 -9.18001672 3.18001672 -7.25 1.25 C-4.62056017 -0.21079991 -2.9625559 -0.24687966 0 0 Z " fill="#A14B16" transform="translate(44,45)"/>
<path d="M0 0 C2.31 0.33 4.62 0.66 7 1 C7.33 2.32 7.66 3.64 8 5 C6.02 5 4.04 5 2 5 C2.33 4.01 2.66 3.02 3 2 C2.01 2 1.02 2 0 2 C0 1.34 0 0.68 0 0 Z " fill="#A34B18" transform="translate(66,30)"/>
<path d="M0 0 C1.875 0.1875 1.875 0.1875 4 1 C5.25 3.5625 5.25 3.5625 6 6 C2 6 2 6 0 5 C0 3.35 0 1.7 0 0 Z " fill="#AE6A11" transform="translate(62,17)"/>
<path d="M0 0 C0.99 0.33 1.98 0.66 3 1 C3 1.66 3 2.32 3 3 C4.65 3 6.3 3 8 3 C8.33 4.32 8.66 5.64 9 7 C8.01 7 7.02 7 6 7 C6 6.01 6 5.02 6 4 C5.01 4.33 4.02 4.66 3 5 C2.01 4.67 1.02 4.34 0 4 C0 2.68 0 1.36 0 0 Z " fill="#592C07" transform="translate(3,15)"/>
<path d="M0 0 C2.125 0.9375 2.125 0.9375 4 2 C3.67 2.99 3.34 3.98 3 5 C1.02 5 -0.96 5 -3 5 C-2.625 3.0625 -2.625 3.0625 -2 1 C-1.34 0.67 -0.68 0.34 0 0 Z " fill="#6B3A01" transform="translate(3,26)"/>
<path d="M0 0 C0.99 0 1.98 0 3 0 C3 1.65 3 3.3 3 5 C1.68 5.33 0.36 5.66 -1 6 C-1.625 4.125 -1.625 4.125 -2 2 C-1.34 1.34 -0.68 0.68 0 0 Z " fill="#251404" transform="translate(53,13)"/>
<path d="M0 0 C2.64 0 5.28 0 8 0 C8 0.99 8 1.98 8 3 C5.36 3 2.72 3 0 3 C0 2.01 0 1.02 0 0 Z " fill="#A04D13" transform="translate(31,30)"/>
<path d="M0 0 C1.32 0 2.64 0 4 0 C4 1.65 4 3.3 4 5 C2.68 5.33 1.36 5.66 0 6 C0 4.02 0 2.04 0 0 Z " fill="#EAA719" transform="translate(59,26)"/>
<path d="M0 0 C1.65 0 3.3 0 5 0 C5 1.32 5 2.64 5 4 C3.02 4 1.04 4 -1 4 C-0.67 2.68 -0.34 1.36 0 0 Z " fill="#753712" transform="translate(19,8)"/>
<path d="M0 0 C1.125 3.75 1.125 3.75 0 6 C0.39938767 8.09821215 0.39938767 8.09821215 1 10 C-0.32 10.33 -1.64 10.66 -3 11 C-3 10.34 -3 9.68 -3 9 C-2.34 9 -1.68 9 -1 9 C-1.99 7.68 -2.98 6.36 -4 5 C-3.01 4.34 -2.02 3.68 -1 3 C-0.67 2.01 -0.34 1.02 0 0 Z " fill="#642308" transform="translate(57,28)"/>
<path d="M0 0 C0.99 0.33 1.98 0.66 3 1 C3 1.66 3 2.32 3 3 C3.66 3 4.32 3 5 3 C5 3.99 5 4.98 5 6 C2.69 5.67 0.38 5.34 -2 5 C-1.34 4.34 -0.68 3.68 0 3 C0 2.01 0 1.02 0 0 Z " fill="#BB815F" transform="translate(13,20)"/>
<path d="M0 0 C5.75 0.875 5.75 0.875 8 2 C8 1.34 8 0.68 8 0 C9.32 0.33 10.64 0.66 12 1 C12 1.66 12 2.32 12 3 C9.03 3 6.06 3 3 3 C3 2.34 3 1.68 3 1 C2.01 0.67 1.02 0.34 0 0 Z " fill="#A24D17" transform="translate(21,7)"/>
<path d="M0 0 C3.63 0 7.26 0 11 0 C11 0.99 11 1.98 11 3 C10.01 3 9.02 3 8 3 C7.67 3.99 7.34 4.98 7 6 C7 4.68 7 3.36 7 2 C4.69 2 2.38 2 0 2 C0 1.34 0 0.68 0 0 Z " fill="#5D250A" transform="translate(57,23)"/>
<path d="M0 0 C2.5654594 2.5654594 2.54046087 4.47686668 3 8 C2.34 8 1.68 8 1 8 C1 7.01 1 6.02 1 5 C0.01 4.67 -0.98 4.34 -2 4 C-2 3.01 -2 2.02 -2 1 C-1.34 0.67 -0.68 0.34 0 0 Z " fill="#F7BD1C" transform="translate(54,19)"/>
<path d="M0 0 C0.598125 0.350625 1.19625 0.70125 1.8125 1.0625 C1.1525 1.0625 0.4925 1.0625 -0.1875 1.0625 C-0.1875 2.0525 -0.1875 3.0425 -0.1875 4.0625 C-1.8375 3.7325 -3.4875 3.4025 -5.1875 3.0625 C-5.1875 2.0725 -5.1875 1.0825 -5.1875 0.0625 C-2.1875 -0.9375 -2.1875 -0.9375 0 0 Z " fill="#A05317" transform="translate(52.1875,18.9375)"/>
<path d="M0 0 C1.32 0.33 2.64 0.66 4 1 C3.34 2.98 2.68 4.96 2 7 C1.34 6.67 0.68 6.34 0 6 C0 4.02 0 2.04 0 0 Z " fill="#923B0D" transform="translate(49,31)"/>
<path d="M0 0 C2.49361571 1.20381448 4.68143083 2.45428722 7 4 C6.01 4 5.02 4 4 4 C4 4.66 4 5.32 4 6 C3.34 6 2.68 6 2 6 C0 3 0 3 0 0 Z " fill="#6C3517" transform="translate(14,17)"/>
<path d="M0 0 C0.99 0.33 1.98 0.66 3 1 C3 1.66 3 2.32 3 3 C3.66 3.33 4.32 3.66 5 4 C2.69 4 0.38 4 -2 4 C-2 3.01 -2 2.02 -2 1 C-1.34 0.67 -0.68 0.34 0 0 Z " fill="#F6C13E" transform="translate(29,15)"/>
<path d="M0 0 C0.40729228 2.32156597 0.74438677 4.6568787 1 7 C0.34 7 -0.32 7 -1 7 C-1.268125 6.21625 -1.53625 5.4325 -1.8125 4.625 C-2.84814432 1.71885077 -2.84814432 1.71885077 -6 0 C-2.25 -1.125 -2.25 -1.125 0 0 Z " fill="#612607" transform="translate(25,28)"/>
<path d="M0 0 C0.66 0.33 1.32 0.66 2 1 C2 2.32 2 3.64 2 5 C0.68 5 -0.64 5 -2 5 C-2 3.68 -2 2.36 -2 1 C-1.34 0.67 -0.68 0.34 0 0 Z " fill="#000000" transform="translate(62,63)"/>
<path d="M0 0 C0.33 0.66 0.66 1.32 1 2 C2.32 1.34 3.64 0.68 5 0 C4.67 1.65 4.34 3.3 4 5 C1.525 4.01 1.525 4.01 -1 3 C-0.67 2.01 -0.34 1.02 0 0 Z " fill="#E9B80A" transform="translate(47,13)"/>
<path d="M0 0 C0.99 0 1.98 0 3 0 C3.33 1.65 3.66 3.3 4 5 C2.68 4.67 1.36 4.34 0 4 C0 2.68 0 1.36 0 0 Z " fill="#000000" transform="translate(49,64)"/>
<path d="M0 0 C1.32 0 2.64 0 4 0 C4 1.32 4 2.64 4 4 C2.68 4 1.36 4 0 4 C0 2.68 0 1.36 0 0 Z " fill="#000000" transform="translate(26,64)"/>
<path d="M0 0 C1.32 0 2.64 0 4 0 C4 1.32 4 2.64 4 4 C2.68 4 1.36 4 0 4 C0 2.68 0 1.36 0 0 Z " fill="#000000" transform="translate(20,64)"/>
<path d="M0 0 C0.99 0 1.98 0 3 0 C3.33 1.32 3.66 2.64 4 4 C2.35 4 0.7 4 -1 4 C-0.67 2.68 -0.34 1.36 0 0 Z " fill="#000000" transform="translate(15,64)"/>
<path d="M0 0 C1.32 0 2.64 0 4 0 C4 1.32 4 2.64 4 4 C2.68 4 1.36 4 0 4 C0 2.68 0 1.36 0 0 Z " fill="#000000" transform="translate(9,64)"/>
<path d="M0 0 C0.66 0 1.32 0 2 0 C2 1.98 2 3.96 2 6 C1.01 5.67 0.02 5.34 -1 5 C-0.67 3.35 -0.34 1.7 0 0 Z " fill="#000000" transform="translate(67,63)"/>
<path d="M0 0 C0.99 0 1.98 0 3 0 C3 1.32 3 2.64 3 4 C1.68 4 0.36 4 -1 4 C-0.67 2.68 -0.34 1.36 0 0 Z " fill="#000000" transform="translate(55,64)"/>
<path d="M0 0 C0.99 0 1.98 0 3 0 C2.67 1.32 2.34 2.64 2 4 C1.01 4 0.02 4 -1 4 C-0.67 2.68 -0.34 1.36 0 0 Z " fill="#010101" transform="translate(44,64)"/>
</svg>
